<svg width="93" height="93" viewBox="0 0 93 93" fill="none" xmlns="http://www.w3.org/2000/svg">
<circle cx="46.5" cy="46.5" r="46.5" fill="white"/>
<path d="M67.8688 32.8029L48.0228 26.0862C47.6833 25.9713 47.3163 25.9713 46.9768 26.0862L27.1308 32.8029C26.8015 32.9144 26.5151 33.1282 26.3121 33.4142C26.1092 33.7001 26 34.0436 26 34.3961V51.188C26 51.6333 26.1742 52.0604 26.4844 52.3753C26.7945 52.6903 27.2152 52.8672 27.6538 52.8672C28.0925 52.8672 28.5131 52.6903 28.8233 52.3753C29.1334 52.0604 29.3077 51.6333 29.3077 51.188V36.726L36.2517 39.0747C34.4068 42.101 33.8201 45.7471 34.6205 49.2122C35.4209 52.6773 37.5429 55.6784 40.5206 57.5563C36.7995 59.0382 33.5828 61.7186 31.2302 65.3834C31.1079 65.5681 31.0229 65.7756 30.9802 65.9938C30.9375 66.2121 30.938 66.4368 30.9816 66.6549C31.0252 66.873 31.1111 67.0801 31.2342 67.2642C31.3574 67.4483 31.5153 67.6057 31.6989 67.7273C31.8825 67.8488 32.088 67.9322 32.3036 67.9724C32.5192 68.0126 32.7405 68.0089 32.9546 67.9615C33.1688 67.9141 33.3715 67.824 33.551 67.6963C33.7306 67.5687 33.8833 67.4061 34.0004 67.2179C37.1158 62.3651 42.036 59.5839 47.4998 59.5839C52.9637 59.5839 57.8838 62.3651 60.9992 67.2179C61.2418 67.584 61.6165 67.8384 62.0423 67.9262C62.4682 68.014 62.9109 67.9281 63.2749 67.687C63.6388 67.446 63.8947 67.0692 63.9873 66.6382C64.0798 66.2071 64.0015 65.7564 63.7694 65.3834C61.4168 61.7186 58.1877 59.0382 54.479 57.5563C57.4539 55.6784 59.5739 52.6794 60.3742 49.2168C61.1744 45.7542 60.5896 42.1107 58.7479 39.0852L67.8688 35.9997C68.1982 35.8883 68.4847 35.6745 68.6877 35.3886C68.8907 35.1026 69 34.7591 69 34.4066C69 34.0541 68.8907 33.7105 68.6877 33.4246C68.4847 33.1387 68.1982 32.9248 67.8688 32.8134V32.8029ZM57.4228 46.1504C57.4233 47.7432 57.0517 49.3135 56.3388 50.7323C55.6258 52.1511 54.5916 53.3781 53.3212 54.3125C52.0507 55.2469 50.5801 55.8622 49.0301 56.1079C47.4801 56.3535 45.8948 56.2225 44.4044 55.7256C42.9139 55.2288 41.5606 54.3802 40.4557 53.2494C39.3508 52.1187 38.5256 50.7381 38.048 49.2209C37.5703 47.7037 37.4538 46.0932 37.7079 44.5214C37.962 42.9496 38.5795 41.4613 39.5097 40.1788L46.9768 42.6976C47.3163 42.8125 47.6833 42.8125 48.0228 42.6976L55.4899 40.1788C56.7462 41.9084 57.4237 44.0013 57.4228 46.1504Z" fill="#1E90FF"/>
</svg>
